<?xml version="1.0" encoding="utf-8"?>
<!-- Generator: Adobe Illustrator 25.2.1, SVG Export Plug-In . SVG Version: 6.00 Build 0)  -->
<svg version="1.1" id="图层_1" xmlns="http://www.w3.org/2000/svg" xmlns:xlink="http://www.w3.org/1999/xlink" x="0px" y="0px"
	 viewBox="0 0 220 220" style="enable-background:new 0 0 220 220;" xml:space="preserve">
<style type="text/css">
	.st0{fill:#F7485A;stroke:#F64859;stroke-width:5;stroke-miterlimit:10;}
	.st1{fill:#1296DB;stroke:#1696D9;stroke-width:5;stroke-miterlimit:10;}
	.st2{fill:#0E75FF;stroke:#705CF6;stroke-width:10;stroke-miterlimit:10;}
</style>
<path class="st0" d="M137.1,163.2c1.8,0,3.4,1.2,3.8,3l0.1,0.7v43H160c2.1,0,3.8,1.6,3.8,3.6c0,1.8-1.4,3.2-3.1,3.5L160,217H60
	c-2.1,0.1-3.8-1.6-3.8-3.6c0,0,0,0,0,0c0-1.8,1.4-3.2,3.1-3.5l0.7-0.1h19.1v-43c0-2,1.7-3.6,3.8-3.6c1.8,0,3.4,1.2,3.8,3l0.1,0.7v43
	h46.6v-43C133.3,164.8,135,163.2,137.1,163.2L137.1,163.2z"/>
<path class="st1" d="M190.8,9H29.2C18.6,9,10,17.6,10,28v115.8c0,10.5,8.6,19,19.2,19h161.5c10.6,0,19.2-8.6,19.2-19V28
	C210,17.6,201.4,9,190.8,9z M29.2,16.6h161.5c6.3,0,11.5,5.2,11.5,11.4v115.8c0,6.3-5.2,11.4-11.5,11.4H29.2
	c-6.3,0-11.5-5.2-11.5-11.4V28C17.7,21.8,22.9,16.6,29.2,16.6z"/>
<path class="st2" d="M145.3,49.1c1.2-1.7,3.6-2.1,5.4-0.9c0.1,0.1,0.2,0.2,0.3,0.3l0.5,0.6l31.5,42.3c1.3,1.7,0.9,4.1-0.8,5.4
	c-1.5,1.1-3.6,1-5-0.3l-0.5-0.5l-28.4-38.1l-37.7,52.7c-1.2,1.7-3.6,2.1-5.4,0.9c-0.1,0-0.1-0.1-0.2-0.2l-0.5-0.5L77.9,78.3
	l-23.9,31.9l-5.3,7l-1,1.3c-1.4,1.6-3.8,1.8-5.4,0.4c-1.5-1.4-1.8-3.7-0.5-5.3l3.8-4.9l12.4-16.4l16.7-22.4c1.3-1.7,3.7-2.1,5.4-0.8
	c0.1,0,0.1,0.1,0.1,0.1l0.5,0.5l26.8,32.3L145.3,49.1L145.3,49.1z"/>
</svg>
