<?xml version="1.0" standalone="no"?><!DOCTYPE svg PUBLIC "-//W3C//DTD SVG 1.1//EN" "http://www.w3.org/Graphics/SVG/1.1/DTD/svg11.dtd"><svg t="1630342865092" class="icon" viewBox="0 0 1024 1024" version="1.1" xmlns="http://www.w3.org/2000/svg" p-id="5418" data-spm-anchor-id="a313x.7781069.0.i5" xmlns:xlink="http://www.w3.org/1999/xlink" width="200" height="200"><defs><style type="text/css"></style></defs><path d="M650.830769 748.307692a19.298462 19.298462 0 0 1 19.219693 15.123693l0.315076 3.347692v220.278154h97.792c10.791385 0 19.534769 8.270769 19.53477 18.510769 0 9.058462-6.931692 16.541538-16.029539 18.116923l-3.544615 0.315077H255.881846A19.022769 19.022769 0 0 1 236.307692 1005.528615c0-9.058462 6.931692-16.580923 16.029539-18.156307l3.544615-0.315077h97.752616v-220.278154c0-10.24 8.743385-18.471385 19.534769-18.471385a19.298462 19.298462 0 0 1 19.259077 15.123693l0.315077 3.347692v220.278154h238.51323v-220.278154c0-10.24 8.782769-18.471385 19.574154-18.471385z" fill="#f7485a" p-id="5419" data-spm-anchor-id="a313x.7781069.0.i4" class=""></path><path d="M925.538462 0h-827.076924C44.268308 0 0 43.835077 0 97.476923v592.738462C0 743.857231 44.268308 787.692308 98.461538 787.692308h827.076924c54.193231 0 98.461538-43.835077 98.461538-97.476923V97.476923C1024 43.835077 979.731692 0 925.538462 0zM98.461538 38.990769h827.076924c32.452923 0 59.076923 26.387692 59.076923 58.486154v592.738462c0 32.098462-26.624 58.486154-59.076923 58.486153h-827.076924c-32.452923 0-59.076923-26.387692-59.076923-58.486153V97.476923C39.384615 65.378462 66.008615 38.990769 98.461538 38.990769z" fill="#1296db" p-id="5420" data-spm-anchor-id="a313x.7781069.0.i1" class=""></path><path d="M692.932923 205.154462a19.692308 19.692308 0 0 1 29.144615-3.190154l2.63877 2.875077 161.476923 216.615384a19.692308 19.692308 0 0 1-29.223385 26.190769l-2.363077-2.638769-145.368615-195.072-193.024 269.587693a19.692308 19.692308 0 0 1-28.514462 3.780923l-2.678154-2.678154-137.609846-165.888-122.486154 163.209846-27.332923 35.603692-5.238153 6.498462a19.692308 19.692308 0 0 1-30.247385-25.206154l19.613538-25.206154 63.409231-83.889231 85.661539-114.569846a19.692308 19.692308 0 0 1 28.317538-3.426461l2.638769 2.638769 137.255385 165.415384 193.929846-270.651076z" fill="#0e75ff" p-id="5421" data-spm-anchor-id="a313x.7781069.0.i2" class=""></path></svg>